<?xml version="1.0" encoding="UTF-8"?>
<svg width="702px" height="288px" viewBox="0 0 702 288" version="1.1" xmlns="http://www.w3.org/2000/svg" xmlns:xlink="http://www.w3.org/1999/xlink">
    <!-- Generator: Sketch 51.2 (57519) - http://www.bohemiancoding.com/sketch -->
    <title>Combined Shape Copy</title>
    <desc>Created with Sketch.</desc>
    <defs></defs>
    <g id="PL" stroke="none" stroke-width="1" fill="none" fill-rule="evenodd">
        <g id="Comic-Relief-HIV-Booking--9.0-HeaderFooter" transform="translate(-676.000000, -5456.000000)" fill="#FFFFFF">
            <g id="Group-7" transform="translate(676.000000, 5456.000000)">
                <path d="M0.37330207,143.977785 C0.37330207,82.5357665 47.8004005,53.4509246 165.373302,43 C322.873302,29 381.559417,11.1309122 465.486137,2.80693137 C538.669899,-4.45154643 603.169591,4.45728262 615.723069,6.19755983 C665.567298,13.1074197 693.950709,44.9288108 700.873302,101.661733 C701.851299,142.753217 701.684632,169.587786 700.373302,182.165441 C695.519872,228.717234 684.603227,242.348628 677.138715,253.351042 C661.404128,276.543241 598.273,286.625463 571.373302,286.92347 C479.028735,287.946505 435.646244,280.864027 400.873302,279 C286.98167,272.894762 199.873302,293.351042 102.873302,279 C5.87330207,264.648958 0.37330207,205.419803 0.37330207,143.977785 Z" id="Combined-Shape-Copy" transform="translate(350.936651, 143.511976) scale(-1, 1) translate(-350.936651, -143.511976) "></path>
            </g>
        </g>
    </g>
</svg>