<?xml version="1.0" encoding="UTF-8"?>
<svg width="100%" height="100%" viewBox="0 0 665 288" preserveAspectRatio="none" version="1.1" xmlns="http://www.w3.org/2000/svg" xmlns:xlink="http://www.w3.org/1999/xlink">
    <!-- Generator: Sketch 51.2 (57519) - http://www.bohemiancoding.com/sketch -->
    <title>Combined Shape Copy</title>
    <desc>Created with Sketch.</desc>
    <defs></defs>
    <g id="Symbols" stroke="none" stroke-width="1" fill="none" fill-rule="evenodd">
        <g id="Component/-Header/-Search-results" fill="#FFFFFF">
            <g id="Group-7">
                <path d="M0.37330207,143.977785 C0.37330207,82.5357665 45.3313901,53.4509246 156.783556,43 C306.084254,29 361.715224,11.1309122 441.272798,2.80693137 C510.646681,-4.45154643 571.78858,4.45728262 583.688536,6.19755983 C630.937921,13.1074197 657.843718,44.9288108 664.405927,101.661733 C665.33301,142.753217 665.17502,169.587786 663.931957,182.165441 C659.331192,228.717234 648.982857,242.348628 641.906941,253.351042 C626.991482,276.543241 567.146901,286.625463 541.647576,286.92347 C454.110381,287.946505 412.986342,280.864027 380.023647,279 C272.061107,272.894762 189.487519,293.351042 97.537248,279 C5.58697722,264.648958 0.37330207,205.419803 0.37330207,143.977785 Z" id="Combined-Shape-Copy" transform="translate(332.686651, 143.511976) scale(-1, 1) translate(-332.686651, -143.511976) "></path>
            </g>
        </g>
    </g>
</svg>