<?xml version="1.0" encoding="UTF-8"?>
<svg width="100%" height="100%" viewBox="0 0 445 329" preserveAspectRatio="none" version="1.1" xmlns="http://www.w3.org/2000/svg" xmlns:xlink="http://www.w3.org/1999/xlink">
    <!-- Generator: Sketch 51.2 (57519) - http://www.bohemiancoding.com/sketch -->
    <title>Path 4 Copy 5</title>
    <desc>Created with Sketch.</desc>
    <defs></defs>
    <g id="PL" stroke="none" stroke-width="1" fill="none" fill-rule="evenodd">
        <g id="Comic-Relief-HIV-Booking--9.0-HeaderFooter" transform="translate(-699.000000, -4933.000000)" fill="#FFFFFF">
            <path d="M1002.9446,4948.67958 C948.71568,4942.48341 797.641276,4914.11152 739.714931,4948.67958 C681.788586,4983.24764 701.243303,5131.40804 710.825934,5180.35982 C714.239711,5197.79871 729.031497,5223.89606 746.639824,5234.20291 C762.028475,5243.2105 808.263027,5259.11738 833.970419,5259.62187 C893.846338,5260.7969 985.597597,5242.58755 1033.60406,5240.31555 C1090.90558,5237.60365 1126.97153,5204.33353 1142.51288,5129.07291 C1143.97479,5121.99341 1142.7278,5085.02225 1142.51288,5076.40691 C1141.45968,5034.18853 1124.13086,5004.77353 1107.28204,4986.17902 C1086.99494,4963.79 1041.76757,4951.94071 1002.9446,4948.67958 Z" id="Path-4-Copy-5" transform="translate(921.520017, 5095.760216) rotate(-1.000000) translate(-921.520017, -5095.760216) "></path>
        </g>
    </g>
</svg>