<?xml version="1.0" encoding="UTF-8"?>
<svg width="33px" height="65px" viewBox="0 0 33 65" version="1.1" xmlns="http://www.w3.org/2000/svg" xmlns:xlink="http://www.w3.org/1999/xlink">
    <!-- Generator: Sketch 51.2 (57519) - http://www.bohemiancoding.com/sketch -->
    <title>tree-blue-2</title>
    <desc>Created with Sketch.</desc>
    <defs></defs>
    <g id="PL" stroke="none" stroke-width="1" fill="none" fill-rule="evenodd">
        <g id="Comic-Relief-HIV-Booking--4.0-Icons" transform="translate(-1401.000000, -4632.000000)">
            <g id="tree-blue-2" transform="translate(1401.000000, 4632.000000)">
                <path d="M16,41 C20.3372046,41 27.6181333,38.0904224 30.5,34.5 C33.4896056,30.7753492 32,26.264794 32,20.5 C32,9.17816263 24.836556,0 16,0 C7.163444,0 0,9.17816263 0,20.5 C0,27.2429523 0.0780325315,32.7638338 4,36.5 C6.66326044,39.0370898 12.4262361,41 16,41 Z" id="Oval" fill="#9CC5F3"></path>
                <path d="M6.5,19 C5.78370265,20.6160972 5.78370265,21.9494306 6.5,23 C7.21629735,24.0505694 9.71629735,25.8839028 14,28.5 L14,58.9892578 C13.7492432,62.7753001 14.0825766,64.6122141 15,64.5 C16.3761351,64.3316788 18,65 18,58.5 C18,54.7921873 17.0350892,38.5781445 18,36.3945313 C19.5,33 24.5,28.5 26.5,26 C26.7464613,25.6919234 26.6259989,22.1467049 25,23 C24.2771982,23.3793134 21.9438649,25.8793134 18,30.5 C18.2613231,18.3953244 18.2613231,12.2286577 18,12 C17.8075038,11.8315659 16.8558648,7.5794034 15.5,12 C15.228652,12.8846899 14.520612,17.55182 14,24 C13.9459762,24.6691262 11.2844554,21.6334143 8,19 C7.50188521,18.600621 7.00188521,18.600621 6.5,19 Z" id="Path-5" fill="#38486C"></path>
            </g>
        </g>
    </g>
</svg>