<?xml version="1.0" encoding="UTF-8"?>
<svg width="33px" height="75px" viewBox="0 0 33 75" version="1.1" xmlns="http://www.w3.org/2000/svg" xmlns:xlink="http://www.w3.org/1999/xlink">
    <!-- Generator: Sketch 51.2 (57519) - http://www.bohemiancoding.com/sketch -->
    <title>tree-green--large</title>
    <desc>Created with Sketch.</desc>
    <defs></defs>
    <g id="PL" stroke="none" stroke-width="1" fill="none" fill-rule="evenodd">
        <g id="Comic-Relief-HIV-Booking--4.0-Icons" transform="translate(-778.000000, -4622.000000)">
            <g id="tree-green--large" transform="translate(794.500000, 4659.500000) scale(-1, 1) translate(-794.500000, -4659.500000) translate(778.000000, 4622.000000)">
                <path d="M16,41 C20.3372046,41 27.6181333,38.0904224 30.5,34.5 C33.4896056,30.7753492 32,26.264794 32,20.5 C32,9.17816263 24.836556,0 16,0 C7.163444,0 0,9.17816263 0,20.5 C0,27.2429523 0.0780325315,32.7638338 4,36.5 C6.66326044,39.0370898 12.4262361,41 16,41 Z" id="Oval" fill="#46C0B0"></path>
                <path d="M6.53722301,19.0026775 C5.82092566,20.6187748 5.82092566,21.9521081 6.53722301,23.0026775 C7.25352035,24.053247 9.75352035,25.8865803 14.037223,28.5026775 L14.037223,47.4909588 L14.037223,69.0026775 C13.7490595,72.788698 14.0823929,74.6220313 15.037223,74.5026775 C16.4694682,74.3236469 18.037223,75.0026775 18.037223,68.5026775 C18.037223,64.7948648 17.0723122,38.580822 18.037223,36.3972088 C19.537223,33.0026775 24.537223,28.5026775 26.537223,26.0026775 C26.7836843,25.6946009 26.6632219,22.1493824 25.037223,23.0026775 C24.3144212,23.381991 21.9810879,25.881991 18.037223,30.5026775 C18.2985461,18.3980019 18.2985461,12.2313353 18.037223,12.0026775 C17.8447268,11.8342434 16.8930878,7.58208093 15.537223,12.0026775 C15.2658751,12.8873674 14.557835,17.5544975 14.037223,24.0026775 C13.9831992,24.6718038 11.3216784,21.6360918 8.03722301,19.0026775 C7.53910822,18.6032985 7.03910822,18.6032985 6.53722301,19.0026775 Z" id="Path-5" fill="#38486C"></path>
            </g>
        </g>
    </g>
</svg>