<svg width="31px" height="40px" viewBox="0 0 31 40" version="1.1" xmlns="http://www.w3.org/2000/svg" xmlns:xlink="http://www.w3.org/1999/xlink">
    <g id="Filter-search" stroke="none" stroke-width="1" fill="none" fill-rule="evenodd">
        <g id="Filter-results---map-view---intro" transform="translate(-601.000000, -888.000000)" fill="#38486C">
            <path d="M614.937468,927.21874 C613.583305,925.239578 611.838517,922.739584 609.703105,919.718758 C607.098945,915.968767 605.380199,913.442732 604.546868,912.140651 C603.348954,910.265655 602.541664,908.690138 602.124999,907.4141 C601.708333,906.138061 601.5,904.66671 601.5,903.000048 C601.5,900.29172 602.177082,897.791726 603.531245,895.500066 C604.885408,893.208405 606.708321,891.385492 608.999982,890.031329 C611.291643,888.677166 613.791637,888.000083 616.499964,888.000083 C619.208292,888.000083 621.708286,888.677166 623.999946,890.031329 C626.291607,891.385492 628.11452,893.208405 629.468683,895.500066 C630.822846,897.791726 631.499928,900.29172 631.499928,903.000048 C631.499928,904.66671 631.291595,906.138061 630.87493,907.4141 C630.458265,908.690138 629.650974,910.265655 628.453061,912.140651 C627.619729,913.442732 625.900983,915.968767 623.296823,919.718758 L618.062461,927.21874 C617.697878,927.739572 617.177046,927.999988 616.499964,927.999988 C615.822882,927.999988 615.302051,927.739572 614.937468,927.21874 Z M616.499964,909.250033 C618.21871,909.250033 619.69006,908.638055 620.914016,907.4141 C622.137972,906.190144 622.749949,904.718794 622.749949,903.000048 C622.749949,901.281302 622.137972,899.809952 620.914016,898.585996 C619.69006,897.36204 618.21871,896.750063 616.499964,896.750063 C614.781218,896.750063 613.309868,897.36204 612.085912,898.585996 C610.861956,899.809952 610.249979,901.281302 610.249979,903.000048 C610.249979,904.718794 610.861956,906.190144 612.085912,907.4141 C613.309868,908.638055 614.781218,909.250033 616.499964,909.250033 Z" id="ï…-copy"></path>
        </g>
    </g>
</svg>