<svg width="31px" height="40px" viewBox="0 0 31 40" version="1.1" xmlns="http://www.w3.org/2000/svg" xmlns:xlink="http://www.w3.org/1999/xlink">
    <g id="Filter-search" stroke="none" stroke-width="1" fill="none" fill-rule="evenodd">
        <g id="Filter-results---map-view---intro" transform="translate(-268.000000, -729.000000)" fill="#28A197">
            <path d="M281.937468,768.21874 C280.583305,766.239578 278.838517,763.739584 276.703105,760.718758 C274.098945,756.968767 272.380199,754.442732 271.546868,753.140651 C270.348954,751.265655 269.541664,749.690138 269.124999,748.4141 C268.708333,747.138061 268.5,745.66671 268.5,744.000048 C268.5,741.29172 269.177082,738.791726 270.531245,736.500066 C271.885408,734.208405 273.708321,732.385492 275.999982,731.031329 C278.291643,729.677166 280.791637,729.000083 283.499964,729.000083 C286.208292,729.000083 288.708286,729.677166 290.999946,731.031329 C293.291607,732.385492 295.11452,734.208405 296.468683,736.500066 C297.822846,738.791726 298.499928,741.29172 298.499928,744.000048 C298.499928,745.66671 298.291595,747.138061 297.87493,748.4141 C297.458265,749.690138 296.650974,751.265655 295.453061,753.140651 C294.619729,754.442732 292.900983,756.968767 290.296823,760.718758 L285.062461,768.21874 C284.697878,768.739572 284.177046,768.999988 283.499964,768.999988 C282.822882,768.999988 282.302051,768.739572 281.937468,768.21874 Z M283.499964,750.250033 C285.21871,750.250033 286.69006,749.638055 287.914016,748.4141 C289.137972,747.190144 289.749949,745.718794 289.749949,744.000048 C289.749949,742.281302 289.137972,740.809952 287.914016,739.585996 C286.69006,738.36204 285.21871,737.750063 283.499964,737.750063 C281.781218,737.750063 280.309868,738.36204 279.085912,739.585996 C277.861956,740.809952 277.249979,742.281302 277.249979,744.000048 C277.249979,745.718794 277.861956,747.190144 279.085912,748.4141 C280.309868,749.638055 281.781218,750.250033 283.499964,750.250033 Z" id="ï…-copy-5"></path>
        </g>
    </g>
</svg>