<?xml version="1.0" encoding="UTF-8"?>
<svg width="408px" height="178px" viewBox="0 0 408 178" version="1.1" xmlns="http://www.w3.org/2000/svg" xmlns:xlink="http://www.w3.org/1999/xlink">
    <!-- Generator: Sketch 51.2 (57519) - http://www.bohemiancoding.com/sketch -->
    <title>Combined Shape</title>
    <desc>Created with Sketch.</desc>
    <defs></defs>
    <g id="PL" stroke="none" stroke-width="1" fill="none" fill-rule="evenodd">
        <g id="Comic-Relief-HIV-Booking--9.0-HeaderFooter" transform="translate(-676.000000, -3002.000000)" fill="#75D0C4">
            <path d="M1082.00001,3159.5586 C1082.11683,3159.56001 1082.23307,3159.56142 1082.34871,3159.56284 C1082.34871,3164.41976 1085.23842,3165.11328 1082,3165.07361 C1028.62351,3164.41976 963.21038,3174.1764 879.174355,3178 C812.690572,3181.02498 745.29912,3177.66946 677,3167.93344 L676,3159.56284 L676.480945,3095.6708 L677,3026.71585 L677,3011.58342 C757.167945,3003.74991 824.559397,3000.88877 879.174355,3003 C953.600175,3005.87705 1022.36509,3023.55709 1082.34871,3026.62324 C1082.34871,3028.63835 1082.32153,3030.72163 1082.26718,3032.87308 L1082.34871,3032.87432 L1082.00001,3159.5586 Z" id="Combined-Shape"></path>
        </g>
    </g>
</svg>