<?xml version="1.0" encoding="UTF-8"?>
<svg width="1148px" height="613px" viewBox="0 0 1148 613" preserveAspectRatio="none" version="1.1" xmlns="http://www.w3.org/2000/svg" xmlns:xlink="http://www.w3.org/1999/xlink">
    <!-- Generator: Sketch 51.2 (57519) - http://www.bohemiancoding.com/sketch -->
    <title>Combined Shape</title>
    <desc>Created with Sketch.</desc>
    <defs></defs>
    <g id="PL" stroke="none" stroke-width="1" fill="none" fill-rule="evenodd">
        <g id="Comic-Relief-HIV-Booking--9.0-HeaderFooter" transform="translate(-625.000000, -296.000000)" fill="#75D0C4">
            <path d="M1767.99985,859.984086 L1767.99985,885.353879 C1667.70042,911.791545 1578.30311,920.546876 1499.80791,911.619872 C1382.06511,898.229366 1358.08046,875.962992 1244.6985,869.388275 C1131.31655,862.813558 1114.96338,866.506357 975.96146,885.353879 C883.293514,897.918893 768.639643,896.494371 631.999848,881.080313 L631.999848,839.002126 L632,384.02576 L631,383.994603 L631,297.437336 C795.621881,288.854221 918.634037,288.854221 1000.03647,297.437336 C1119.49175,310.032763 1143.99474,351.949384 1251.1647,360.998042 L1462.64936,360.998042 C1480.87649,358.603343 1501.7767,355.493385 1526.60845,351.535628 C1619.27639,336.765935 1699.40691,336.765935 1767,351.535628 L1766.83483,360.998042 L1768,360.998042 L1768,859.984086 Z" id="Combined-Shape" transform="translate(1199.500000, 603.000000) rotate(-1.000000) translate(-1199.500000, -603.000000) "></path>
        </g>
    </g>
</svg>