<?xml version="1.0" encoding="UTF-8"?>
<svg width="1056px" height="402px" viewBox="0 0 1056 402" preserveAspectRatio="none" version="1.1" xmlns="http://www.w3.org/2000/svg" xmlns:xlink="http://www.w3.org/1999/xlink">
    <!-- Generator: Sketch 51.2 (57519) - http://www.bohemiancoding.com/sketch -->
    <title>Combined Shape</title>
    <desc>Created with Sketch.</desc>
    <defs></defs>
    <g id="PL" stroke="none" stroke-width="1" fill="none" fill-rule="evenodd">
        <g id="Comic-Relief-HIV-Booking--9.0-HeaderFooter" transform="translate(-648.000000, -1430.000000)" fill="#75D0C4">
            <path d="M1703.94626,1780.6415 L1703.94626,1797.48144 C1654.3569,1804.95962 1599.19304,1808.69872 1538.45468,1808.69872 C1456.45886,1808.69872 1263.46868,1793.48188 1215.97109,1793.48188 C1110.47646,1793.48188 1096.92917,1805.03893 967.722692,1823.6445 C881.585041,1836.04821 775.010811,1834.64197 648,1819.42579 L648,1777.88778 C648.017914,1777.88729 648.035827,1777.8868 648.05374,1777.88631 L648.05374,1431.51673 C761.933191,1429.49442 837.551087,1429.49442 874.907429,1431.51673 C932.867284,1434.65443 1027.45992,1433.41516 1099.78075,1439.51584 C1184.67499,1446.67716 1250.82499,1461.02901 1368.4077,1461.02901 C1387.66662,1461.02901 1453.02716,1449.87356 1574.45679,1442.66558 C1599.00499,1441.20842 1642.18606,1441.20842 1704,1442.66558 L1704,1780.6415 L1703.94626,1780.6415 Z" id="Combined-Shape"></path>
        </g>
    </g>
</svg>