<?xml version="1.0" encoding="UTF-8"?>
<svg width="1158px" height="241px" viewBox="0 0 1158 241" preserveAspectRatio="none" version="1.1" xmlns="http://www.w3.org/2000/svg" xmlns:xlink="http://www.w3.org/1999/xlink">
    <!-- Generator: Sketch 51.2 (57519) - http://www.bohemiancoding.com/sketch -->
    <title>Group 5</title>
    <desc>Created with Sketch.</desc>
    <defs></defs>
    <g id="PL" stroke="none" stroke-width="1" fill="none" fill-rule="evenodd">
        <g id="Comic-Relief-HIV-Booking--9.0-HeaderFooter" transform="translate(-642.000000, -1929.000000)" fill="#75D0C4">
            <g id="Group-5" transform="translate(642.000000, 1929.000000)">
                <path d="M1158,214.302395 L1158,226.644868 C1055.75816,239.446414 964.629559,243.685887 884.614203,239.363287 C764.591171,232.879387 740.142035,222.097649 624.564299,218.914064 C508.986564,215.73048 492.316699,217.518593 350.622841,226.644868 C256.160269,232.729051 139.285988,232.039275 0,224.575538 L0,214.302395 L0,33.9131737 L0,2.65082601 C80.756238,-0.883608669 151.695777,-0.883608669 212.818618,2.65082601 C304.502879,7.95247802 448.419386,25.3721918 563.997121,29.1590861 C610.122342,30.6703749 652.442098,32.7043774 695.653763,33.9131737 L826.945574,33.9131737 C853.760293,33.0292263 882.177007,31.5169627 912.952975,29.1590861 C1007.41555,21.9219103 1089.09789,21.9219103 1158,29.1590861 L1158,33.9131737 L1158,214.302395 Z" id="Combined-Shape"></path>
            </g>
        </g>
    </g>
</svg>