<?xml version="1.0" encoding="UTF-8"?>
<svg width="1043px" height="342px" viewBox="0 0 1043 342" preserveAspectRatio="none" version="1.1" xmlns="http://www.w3.org/2000/svg" xmlns:xlink="http://www.w3.org/1999/xlink">
    <!-- Generator: Sketch 51.2 (57519) - http://www.bohemiancoding.com/sketch -->
    <title>Combined Shape</title>
    <desc>Created with Sketch.</desc>
    <defs></defs>
    <g id="PL" stroke="none" stroke-width="1" fill="none" fill-rule="evenodd">
        <g id="Comic-Relief-HIV-Booking--9.0-HeaderFooter" transform="translate(-658.000000, -1017.000000)" fill="#75D0C4">
            <path d="M1701,1329 L1701,1343.39634 C1609,1357.31129 1527,1361.91949 1455,1357.22094 C1347,1350.1731 1325,1338.45363 1221,1334.99316 C1117,1331.53268 1102,1333.47632 974.5,1343.39634 C889.5,1350.00969 784.333333,1349.25992 659,1341.14703 L659,1329 L659,1075.0307 L658,1074.96937 L658,1028.99528 C718.467824,1021.41761 761.967824,1017.45094 788.5,1017.09526 C875.799369,1015.92497 945.213814,1025.86395 996.5,1028.99528 C1108.06648,1035.80707 1129.33606,1058.76502 1232.29604,1063 L1417.57942,1063 C1435.05651,1061.69748 1455.23123,1059.96889 1479.5,1057.72909 C1564.5,1049.8843 1638,1049.8843 1700,1057.72909 L1700,1063 L1701,1063 L1701,1329 Z" id="Combined-Shape"></path>
        </g>
    </g>
</svg>