<svg width="11" height="20" xmlns="http://www.w3.org/2000/svg"><path d="M1.18 13.128h8.832c.247 0 .457.086.63.26.174.173.26.383.26.63a.859.859 0 0 1-.26.631l-4.416 4.416a.859.859 0 0 1-.63.26.859.859 0 0 1-.631-.26L.549 14.65a.859.859 0 0 1-.26-.63c0-.248.087-.458.26-.632a.859.859 0 0 1 .63-.26zm8.832-6.549H1.18a.859.859 0 0 1-.631-.26.859.859 0 0 1-.26-.63c0-.248.087-.458.26-.632L4.965.641a.859.859 0 0 1 .63-.26c.248 0 .458.087.631.26l4.416 4.416c.174.174.26.384.26.631a.859.859 0 0 1-.26.631.859.859 0 0 1-.63.26z" fill="#38486C" fill-rule="evenodd" opacity=".798"/></svg>