<svg width="75px" height="75px" viewBox="0 0 15 15" version="1.1" xmlns="http://www.w3.org/2000/svg" xmlns:xlink="http://www.w3.org/1999/xlink">
    <defs>
        <path d="M5.55529645,14.5097869 C6.05777753,14.5097869 8.06770183,12.4654188 9.57514506,9.90995863 C10.4476265,8.43090352 12.3688618,5.79979293 13.4104661,3.50978693 C14.1685095,1.84319991 14.8337739,0.725067944 14.4104661,0.509786932 C14.0137746,0.308042154 13.3986588,-0.065108823 12.9104661,0.00978693201 C12.1618911,0.124629043 11.5187367,0.963050656 10.9104661,2.50978693 C10.589476,3.32601396 9.25999087,5.26105156 7.91046606,7.3710884 C7.03925237,8.73326639 6.14667863,10.5311316 5.55529645,10.9321427 C4.5503343,10.4210507 4.5503343,10.4210507 2.92039036,8.04306303 C2.0560036,6.78197608 1.91542821,5.9986949 0.910466061,6.50978693 C-0.892077174,7.42650353 0.339240366,8.49046743 1.53544785,9.90995863 C2.82754204,11.4432347 5.05281538,14.5097869 5.55529645,14.5097869 Z" id="path-1"></path>
    </defs>
    <g id="Symbols" stroke="none" stroke-width="1" fill="none" fill-rule="evenodd">
        <g id="Icon/-Tick" transform="translate(-2.000000, -2.000000)">
            <g id="Colour/-Default" transform="translate(2.000000, 2.000000)">
                <mask id="mask-2" fill="white">
                    <use xlink:href="#path-1"></use>
                </mask>
                <use id="Mask" fill="#46C0B0" xlink:href="#path-1"></use>
            </g>
        </g>
    </g>
</svg>