<?xml version="1.0" encoding="UTF-8"?>
<svg width="45px" height="43px" viewBox="0 0 45 43" version="1.1" xmlns="http://www.w3.org/2000/svg" xmlns:xlink="http://www.w3.org/1999/xlink">
    <!-- Generator: Sketch 51.2 (57519) - http://www.bohemiancoding.com/sketch -->
    <title>Fill 1</title>
    <desc>Created with Sketch.</desc>
    <defs></defs>
    <g id="Symbols" stroke="none" stroke-width="1" fill="none" fill-rule="evenodd">
        <g id="Icon/-Who-is-this-for/-age-colour" transform="translate(-8.000000, -9.000000)" fill="#46C0B0">
            <path d="M41.773,25.537 C48.844,26.482 52.167,30.747 52.167,38.75 L52.167,49.75 C52.167,50.579 51.496,51.25 50.667,51.25 L9.5,51.25 C8.672,51.25 8,50.579 8,49.75 L8,38.75 C8,30.488 11.555,26.222 19.106,25.467 L19.106,19.581 C17.67,19.056 16.869,17.711 16.869,15.707 C16.869,13.2 19.13,9.983 19.388,9.625 C19.952,8.84 21.26,8.84 21.824,9.625 C22.082,9.983 24.343,13.2 24.343,15.707 C24.343,17.711 23.542,19.056 22.106,19.581 L22.106,25.333 L28.939,25.333 L28.939,19.581 C27.503,19.056 26.702,17.711 26.702,15.707 C26.702,13.2 28.964,9.983 29.222,9.625 C29.785,8.84 31.094,8.84 31.657,9.625 C31.915,9.983 34.177,13.2 34.177,15.707 C34.177,17.711 33.375,19.056 31.939,19.581 L31.939,25.333 L38.491,25.333 C38.588,25.333 38.677,25.34 38.773,25.341 L38.773,19.581 C37.336,19.056 36.535,17.711 36.535,15.707 C36.535,13.2 38.797,9.983 39.055,9.624 C39.337,9.232 39.79,9 40.273,9 C40.756,9 41.209,9.232 41.491,9.625 C41.749,9.983 44.01,13.2 44.01,15.707 C44.01,17.711 43.209,19.056 41.773,19.581 L41.773,25.537 Z M49.167,48.25 L49.167,39.103 L45.964,36.537 C45.756,36.371 45.51,36.375 45.305,36.55 L42.948,38.556 C41.711,39.607 39.991,39.695 38.665,38.771 L35.731,36.729 C35.521,36.583 35.278,36.604 35.081,36.791 L33.378,38.396 C32.163,39.541 30.356,39.69 28.987,38.757 L25.514,36.393 C25.321,36.261 25.102,36.27 24.914,36.419 L22.699,38.17 C21.448,39.159 19.743,39.193 18.457,38.258 L15.573,36.157 C15.384,36.02 15.166,36.02 14.978,36.157 L11,39.053 L11,48.25 L49.167,48.25 Z M21.677,28.333 C15.489,28.333 12.292,30.346 11.325,35.106 L13.211,33.732 C14.445,32.833 16.104,32.833 17.339,33.732 L20.223,35.833 C20.419,35.976 20.645,35.971 20.839,35.817 L23.054,34.066 C24.264,33.109 25.932,33.048 27.203,33.913 L30.675,36.278 C30.884,36.419 31.125,36.395 31.32,36.212 L33.023,34.607 C34.252,33.449 36.071,33.307 37.446,34.267 L40.379,36.31 C40.581,36.451 40.809,36.437 41.004,36.271 L43.36,34.265 C44.665,33.154 46.506,33.127 47.84,34.196 L48.815,34.977 C47.817,30.309 44.623,28.333 38.491,28.333 L21.677,28.333 Z M20.606,13.42 C20.187,14.267 19.869,15.124 19.869,15.707 C19.869,16.833 20.084,16.833 20.606,16.833 C21.127,16.833 21.343,16.833 21.343,15.707 C21.343,15.098 21.015,14.239 20.606,13.42 Z M30.44,13.42 C30.02,14.267 29.702,15.124 29.702,15.707 C29.702,16.833 29.918,16.833 30.439,16.833 C30.961,16.833 31.177,16.833 31.177,15.707 C31.177,15.098 30.848,14.239 30.44,13.42 Z M40.273,13.419 C39.854,14.266 39.535,15.124 39.535,15.707 C39.535,16.833 39.751,16.833 40.273,16.833 C40.794,16.833 41.01,16.833 41.01,15.707 C41.01,15.098 40.682,14.238 40.273,13.419 Z" id="Fill-1"></path>
        </g>
    </g>
</svg>