<?xml version="1.0" encoding="UTF-8"?>
<svg width="31px" height="40px" viewBox="0 0 31 40" version="1.1" xmlns="http://www.w3.org/2000/svg" xmlns:xlink="http://www.w3.org/1999/xlink">
    <!-- Generator: Sketch 51.2 (57519) - http://www.bohemiancoding.com/sketch -->
    <title></title>
    <desc>Created with Sketch.</desc>
    <defs></defs>
    <g id="PL" stroke="none" stroke-width="1" fill="none" fill-rule="evenodd">
        <g id="Comic-Relief-HIV-Booking--4.0-Icons" transform="translate(-893.000000, -3625.000000)" fill="#46C0B0">
            <path d="M922.744066,3657.33399 C922.642504,3658.29883 922.198168,3658.94629 921.411061,3659.27637 C920.623954,3659.60645 919.862237,3659.54297 919.125911,3659.08594 C918.389584,3658.62891 918.046811,3657.91797 918.097593,3656.95313 L918.85931,3647.66019 L915.73627,3647.81253 C916.548769,3649.43752 916.955017,3651.18947 916.955017,3653.06838 C916.955017,3654.59181 916.675721,3656.05177 916.117129,3657.44825 C915.558537,3658.84473 914.771428,3660.07617 913.755806,3661.14258 L910.78511,3658.17188 C912.206982,3656.59766 912.854442,3654.79493 912.727488,3652.76369 C912.600535,3650.73244 911.851514,3649.03128 910.480423,3647.66019 C909.058551,3646.13675 907.281212,3645.37503 905.148405,3645.37503 C903.167941,3645.37503 901.441382,3646.03519 899.96873,3647.3555 L896.998034,3644.3848 C898.775373,3642.75981 900.832008,3641.74418 903.167941,3641.33794 L908.956989,3634.78717 L905.681607,3632.88288 L901.79685,3636.38678 C901.035133,3637.04693 900.260721,3637.22466 899.473614,3636.91998 C898.686507,3636.61529 898.178695,3636.044 897.95018,3635.20611 C897.721665,3634.36823 897.962875,3633.6192 898.673811,3632.95905 L903.853486,3628.31258 C904.208954,3628.00789 904.640593,3627.83016 905.148405,3627.77937 C905.656216,3627.72859 906.138637,3627.83016 906.595667,3628.08406 L917.183532,3634.25397 C917.792906,3634.66022 918.161069,3635.26959 918.288022,3636.08209 C918.414975,3636.89459 918.199155,3637.60552 917.640563,3638.2149 L913.222604,3643.3184 L921.296804,3642.86137 C922.007739,3642.81059 922.604418,3643.0391 923.086839,3643.54691 C923.569259,3644.05473 923.78508,3644.6641 923.734298,3645.37503 L922.744066,3657.33399 Z M918.783138,3633.64459 C917.716734,3633.64459 916.802674,3633.26374 916.040957,3632.50202 C915.27924,3631.7403 914.898382,3630.82624 914.898382,3629.75984 C914.898382,3628.69343 915.27924,3627.77937 916.040957,3627.01766 C916.802674,3626.25594 917.716734,3625.87508 918.783138,3625.87508 C919.849542,3625.87508 920.763602,3626.25594 921.525319,3627.01766 C922.287036,3627.77937 922.667894,3628.69343 922.667894,3629.75984 C922.667894,3630.82624 922.287036,3631.7403 921.525319,3632.50202 C920.763602,3633.26374 919.849542,3633.64459 918.783138,3633.64459 Z M905.148405,3660.60937 C906.671839,3660.66016 908.093711,3660.22852 909.41402,3659.31445 L912.384716,3662.36132 C910.556595,3663.83397 908.499959,3664.64647 906.214809,3664.79882 C904.03122,3665.00194 901.949194,3664.62108 899.96873,3663.65624 C897.988266,3662.6914 896.38866,3661.32031 895.169913,3659.54297 C893.900384,3657.61329 893.265621,3655.4297 893.265621,3652.9922 C893.265621,3650.3008 894.103509,3647.8887 895.779287,3645.75589 L898.826154,3648.72659 C897.708969,3650.35159 897.290025,3652.10353 897.569321,3653.98244 C897.848618,3655.86134 898.686507,3657.43555 900.082987,3658.70508 C901.479468,3659.97461 903.167941,3660.60937 905.148405,3660.60937 Z" id=""></path>
        </g>
    </g>
</svg>