<?xml version="1.0" encoding="UTF-8"?>
<svg width="45px" height="39px" viewBox="0 0 45 39" version="1.1" xmlns="http://www.w3.org/2000/svg" xmlns:xlink="http://www.w3.org/1999/xlink">
    <!-- Generator: Sketch 51.2 (57519) - http://www.bohemiancoding.com/sketch -->
    <title>Fill 1</title>
    <desc>Created with Sketch.</desc>
    <defs></defs>
    <g id="Symbols" stroke="none" stroke-width="1" fill="none" fill-rule="evenodd">
        <g id="Icon/-Who-is-this-for/-employment-colour" transform="translate(-8.000000, -11.000000)" fill="#46C0B0">
            <path d="M49.167,27.49 L36.549,30.978 C35.653,31.226 34.746,31.409 33.834,31.554 L33.834,30.557 C33.834,29.729 33.162,29.057 32.334,29.057 L27.834,29.057 C27.005,29.057 26.334,29.729 26.334,30.557 L26.334,31.613 C25.259,31.456 24.192,31.233 23.14,30.935 L11,27.495 L11,21.936 C11,21.084 11.694,20.391 12.546,20.391 L47.622,20.391 C48.474,20.391 49.167,21.084 49.167,21.936 L49.167,27.49 Z M29.334,34.724 L30.834,34.724 L30.834,32.057 L29.334,32.057 L29.334,34.724 Z M49.167,44.845 C49.167,45.698 48.474,46.391 47.622,46.391 L12.546,46.391 C11.694,46.391 11,45.698 11,44.845 L11,30.614 L22.322,33.822 C23.643,34.195 24.983,34.463 26.334,34.638 L26.334,36.224 C26.334,37.053 27.005,37.724 27.834,37.724 L32.334,37.724 C33.162,37.724 33.834,37.053 33.834,36.224 L33.834,34.596 C35.016,34.428 36.19,34.19 37.349,33.87 L49.167,30.603 L49.167,44.845 Z M26.167,15.636 C26.167,14.291 26.47,14 27.871,14 L32.296,14 C33.698,14 34,14.291 34,15.636 L34,17.031 L26.167,17.031 L26.167,15.636 Z M47.622,17.391 L37,17.391 L37,15.636 C37,12.647 35.33,11 32.296,11 L27.871,11 C24.837,11 23.167,12.647 23.167,15.636 L23.167,17.391 L12.546,17.391 C10.04,17.391 8,19.43 8,21.936 L8,44.845 C8,47.352 10.04,49.391 12.546,49.391 L47.622,49.391 C50.128,49.391 52.167,47.352 52.167,44.845 L52.167,21.936 C52.167,19.43 50.128,17.391 47.622,17.391 Z" id="Fill-1"></path>
        </g>
    </g>
</svg>