<?xml version="1.0" encoding="UTF-8"?>
<svg width="34px" height="34px" viewBox="0 0 34 34" version="1.1" xmlns="http://www.w3.org/2000/svg" xmlns:xlink="http://www.w3.org/1999/xlink">
    <!-- Generator: Sketch 51.2 (57519) - http://www.bohemiancoding.com/sketch -->
    <title>Fill 1</title>
    <desc>Created with Sketch.</desc>
    <defs></defs>
    <g id="Symbols" stroke="none" stroke-width="1" fill="none" fill-rule="evenodd">
        <g id="Icon/-Who-is-this-for/-gender" transform="translate(-13.000000, -13.000000)" fill="#46C0B0">
            <path d="M37.9384378,31.225515 C40.2749284,28.7341709 41.4444571,25.8501321 40.6351124,21.938585 C39.7162582,17.4948895 34.8473573,13.6081531 30.3078409,13.7347736 C20.896857,13.9965701 16.2675084,24.7045587 21.5119931,31.2999474 C16.8852112,33.6740819 13.7119985,38.9801658 13.7872864,44.1835844 C13.8232193,46.7211278 17.7706992,46.7288277 17.7347664,44.1835844 C17.6663229,39.4481484 21.1672089,34.8196554 25.8290681,33.9889221 C27.2287381,33.7399588 27.510212,32.4335432 27.0490738,31.4128792 C26.9284421,31.0056402 26.6717789,30.6232121 26.2226183,30.3331827 C20.1816222,26.431902 24.0649364,16.5717575 31.2412394,17.7387195 C34.4666403,18.2640235 36.932318,21.3568151 36.9040851,24.5214723 C36.8775632,27.364445 35.0595322,28.773526 32.992538,30.4110372 C32.8239958,30.5453576 32.7007975,30.689089 32.5981322,30.8362425 C31.7306106,31.8526288 31.8058984,33.6526933 33.469076,33.9880666 C38.5595627,35.0130083 42.435177,38.0955333 42.8321494,43.5111268 C43.0169469,46.0298483 46.9652824,46.0495258 46.7796294,43.5111268 C46.3475797,37.6249841 42.9852918,33.3318643 37.9384378,31.225515" id="Fill-1"></path>
        </g>
    </g>
</svg>