<?xml version="1.0" encoding="UTF-8"?>
<svg width="39px" height="37px" viewBox="0 0 39 37" version="1.1" xmlns="http://www.w3.org/2000/svg" xmlns:xlink="http://www.w3.org/1999/xlink">
    <!-- Generator: Sketch 51.2 (57519) - http://www.bohemiancoding.com/sketch -->
    <title>Fill 1</title>
    <desc>Created with Sketch.</desc>
    <defs></defs>
    <g id="Symbols" stroke="none" stroke-width="1" fill="none" fill-rule="evenodd">
        <g id="Icon/-Who-is-this-for/-housing" transform="translate(-11.000000, -12.000000)" fill="#46C0B0">
            <path d="M41.5538488,45.24975 L35.9238488,45.24975 L35.9238488,34.77675 C35.9238488,33.94775 35.2528488,33.27675 34.4238488,33.27675 L26.0758488,33.27675 C25.2468488,33.27675 24.5758488,33.94775 24.5758488,34.77675 L24.5758488,45.24975 L18.9468488,45.24975 L18.9468488,24.51175 L30.2498488,15.42475 L41.5538488,24.51175 L41.5538488,45.24975 Z M18.9468488,17.83275 L20.2348488,17.83275 L20.2348488,19.16675 C20.2348488,19.30975 20.2618488,19.44475 20.2988488,19.57575 L18.9468488,20.66275 L18.9468488,17.83275 Z M48.9398488,26.60075 L31.1898488,12.33075 C30.6408488,11.88975 29.8588488,11.88975 29.3098488,12.33075 L23.2348488,17.21475 L23.2348488,16.33275 C23.2348488,15.50475 22.5638488,14.83275 21.7348488,14.83275 L17.4468488,14.83275 C16.6178488,14.83275 15.9468488,15.50475 15.9468488,16.33275 L15.9468488,23.07475 L11.5598488,26.60075 C10.9148488,27.11975 10.8118488,28.06375 11.3308488,28.70975 C11.8508488,29.35575 12.7948488,29.45875 13.4398488,28.93875 L15.9468488,26.92375 L15.9468488,46.74975 C15.9468488,47.57875 16.6178488,48.24975 17.4468488,48.24975 L26.0758488,48.24975 C26.9048488,48.24975 27.5758488,47.57875 27.5758488,46.74975 L27.5758488,36.27675 L32.9238488,36.27675 L32.9238488,46.74975 C32.9238488,47.57875 33.5958488,48.24975 34.4238488,48.24975 L43.0538488,48.24975 C43.8828488,48.24975 44.5538488,47.57875 44.5538488,46.74975 L44.5538488,26.92375 L47.0598488,28.93875 C47.3378488,29.16175 47.6698488,29.26975 47.9988488,29.26975 C48.4378488,29.26975 48.8728488,29.07875 49.1688488,28.70975 C49.6878488,28.06375 49.5858488,27.11975 48.9398488,26.60075 Z" id="Fill-1"></path>
        </g>
    </g>
</svg>