<?xml version="1.0" encoding="UTF-8"?>
<svg width="48px" height="42px" viewBox="0 0 48 42" version="1.1" xmlns="http://www.w3.org/2000/svg" xmlns:xlink="http://www.w3.org/1999/xlink">
    <!-- Generator: Sketch 51.2 (57519) - http://www.bohemiancoding.com/sketch -->
    <title>Fill 1</title>
    <desc>Created with Sketch.</desc>
    <defs></defs>
    <g id="Symbols" stroke="none" stroke-width="1" fill="none" fill-rule="evenodd">
        <g id="Icon/-Who-is-this-for/-income" transform="translate(-6.000000, -9.000000)" fill="#46C0B0">
            <path d="M40.514,35.076 C34.527,35.076 30.053,32.647 30.053,30.475 C30.053,28.304 34.527,25.875 40.514,25.875 C46.501,25.875 50.975,28.304 50.975,30.475 C50.975,32.647 46.501,35.076 40.514,35.076 Z M40.514,41.296 C34.527,41.296 30.053,38.868 30.053,36.696 L30.053,35.308 C32.502,37.007 36.245,38.076 40.514,38.076 C44.758,38.076 48.484,37.021 50.934,35.34 L50.975,36.696 C50.975,38.868 46.501,41.296 40.514,41.296 Z M40.514,47.875 C34.527,47.875 30.053,45.446 30.053,43.274 L30.053,41.529 C32.502,43.227 36.245,44.296 40.514,44.296 C44.752,44.296 48.473,43.243 50.923,41.558 L50.975,43.274 C50.975,45.446 46.501,47.875 40.514,47.875 Z M27.524,45.279 C27.529,45.291 27.534,45.303 27.54,45.315 C27.534,45.303 27.529,45.291 27.524,45.279 Z M27.904,45.96 C27.907,45.965 27.91,45.97 27.913,45.975 C27.91,45.97 27.907,45.965 27.904,45.96 Z M19.432,45.403 C13.445,45.355 8.991,42.891 9.008,40.72 L9.012,40.162 C11.449,41.863 15.166,42.947 19.409,42.98 C19.476,42.98 19.543,42.981 19.61,42.981 C22.308,42.98 24.882,42.543 27.053,41.743 L27.053,43.274 C27.053,43.484 27.078,43.689 27.106,43.893 C25.058,44.889 22.353,45.429 19.432,45.403 Z M27.584,28.287 C27.583,28.288 27.583,28.29 27.582,28.291 C27.583,28.29 27.583,28.288 27.584,28.287 Z M28.001,27.581 C27.999,27.584 27.998,27.586 27.996,27.589 C27.998,27.586 27.999,27.584 28.001,27.581 Z M9,27.653 C11.45,29.352 15.193,30.421 19.462,30.421 C22.408,30.421 25.092,29.903 27.285,29.027 C27.138,29.494 27.053,29.977 27.053,30.475 C27.053,30.891 27.125,31.294 27.233,31.69 C27.121,31.9 27.053,32.136 27.053,32.389 L27.053,32.454 C25.179,33.364 22.52,33.999 19.462,33.999 C13.474,33.999 9,31.571 9,29.399 L9,27.653 Z M28.53,26.913 C28.528,26.915 28.526,26.917 28.524,26.919 C28.526,26.917 28.528,26.915 28.53,26.913 Z M29.164,26.284 C29.163,26.286 29.162,26.287 29.16,26.288 C29.162,26.287 29.163,26.286 29.164,26.284 Z M9,21.493 C11.429,23.168 15.147,24.201 19.462,24.201 C23.754,24.201 27.454,23.177 29.884,21.518 L29.923,22.82 C29.923,24.992 25.449,27.421 19.462,27.421 C13.474,27.421 9,24.992 9,22.82 L9,21.493 Z M19.462,12 C25.449,12 29.923,14.429 29.923,16.6 C29.923,18.772 25.449,21.201 19.462,21.201 C13.474,21.201 9,18.772 9,16.6 C9,14.429 13.474,12 19.462,12 Z M27.103,38.631 C27.077,38.74 27.053,38.85 27.053,38.968 C27.053,38.85 27.074,38.739 27.103,38.631 Z M27.268,44.622 C27.264,44.608 27.261,44.594 27.257,44.579 C27.261,44.594 27.264,44.608 27.268,44.622 Z M27.158,38.448 L27.158,38.447 C25.106,39.459 22.39,40.021 19.432,39.98 C13.445,39.933 8.991,37.469 9.008,35.297 L9.015,34.302 C11.444,35.97 15.156,36.999 19.462,36.999 C22.327,36.999 24.917,36.536 27.053,35.737 L27.053,36.696 C27.053,37.196 27.141,37.681 27.297,38.152 C27.238,38.243 27.197,38.345 27.158,38.448 Z M53.855,32.703 C53.848,32.472 53.786,32.258 53.689,32.066 C53.875,31.555 53.975,31.023 53.975,30.475 C53.975,26.142 48.188,22.875 40.514,22.875 C37.531,22.875 34.839,23.374 32.656,24.232 C32.813,23.761 32.923,23.278 32.923,22.775 L32.803,18.827 C32.796,18.603 32.738,18.394 32.644,18.205 C32.826,17.691 32.923,17.155 32.923,16.6 C32.923,12.338 27.01,9 19.462,9 C11.913,9 6,12.338 6,16.6 C6,17.02 6.071,17.427 6.176,17.825 C6.067,18.032 6,18.264 6,18.514 L6,22.82 C6,23.32 6.089,23.806 6.244,24.277 C6.091,24.512 6,24.791 6,25.093 L6,29.399 C6,29.767 6.057,30.125 6.138,30.476 C6.081,30.631 6.043,30.794 6.042,30.968 L6.008,35.274 C6.006,35.549 6.03,35.82 6.076,36.087 C6.055,36.185 6.043,36.286 6.042,36.39 L6.008,40.696 C5.974,45.029 11.735,48.342 19.409,48.403 C19.476,48.403 19.543,48.404 19.61,48.404 C22.884,48.403 25.981,47.765 28.385,46.605 C30.537,49.151 35.097,50.875 40.514,50.875 C48.062,50.875 53.975,47.536 53.975,43.229 L53.855,39.282 C53.846,38.981 53.749,38.706 53.591,38.477 C53.833,37.893 53.975,37.284 53.975,36.65 L53.855,32.703 Z" id="Fill-1"></path>
        </g>
    </g>
</svg>