<?xml version="1.0" encoding="UTF-8"?>
<svg width="57px" height="35px" viewBox="0 0 57 35" version="1.1" xmlns="http://www.w3.org/2000/svg" xmlns:xlink="http://www.w3.org/1999/xlink">
    <!-- Generator: Sketch 51.2 (57519) - http://www.bohemiancoding.com/sketch -->
    <title>Fill 1</title>
    <desc>Created with Sketch.</desc>
    <defs></defs>
    <g id="Symbols" stroke="none" stroke-width="1" fill="none" fill-rule="evenodd">
        <g id="Icon/-Who-is-this-for/-language" transform="translate(-2.000000, -13.000000)" fill="#46C0B0">
            <path d="M50.207,39.755 C49.626,40.093 49.342,40.777 49.51,41.427 L50.119,43.776 L45.88,41.774 C45.597,41.64 45.279,41.598 44.972,41.654 C42.696,42.067 40.482,42.041 38.379,41.646 C37.081,41.402 35.837,40.996 34.677,40.478 C38.763,37.597 41.358,33.397 41.358,28.712 C41.358,25.907 40.421,23.277 38.801,20.995 C39.759,20.838 40.737,20.75 41.73,20.75 C49.439,20.75 55.711,25.506 55.711,31.353 C55.711,34.653 53.705,37.716 50.207,39.755 M17.826,41.067 C17.518,41.011 17.2,41.054 16.917,41.187 L11.435,43.776 L12.29,40.477 C12.458,39.826 12.174,39.143 11.593,38.805 C7.403,36.363 5,32.684 5,28.712 C5,21.703 12.482,16 21.679,16 C30.876,16 38.358,21.703 38.358,28.712 C38.358,35.721 30.876,41.424 21.679,41.424 C20.426,41.424 19.13,41.304 17.826,41.067 M58.711,31.353 C58.711,23.852 51.094,17.75 41.73,17.75 C39.942,17.75 38.189,17.98 36.507,18.414 C32.896,15.105 27.595,13 21.679,13 C10.828,13 2,20.048 2,28.712 C2,33.377 4.637,37.821 9.109,40.791 L7.727,46.124 C7.581,46.687 7.774,47.284 8.223,47.655 C8.497,47.882 8.836,48 9.18,48 C9.397,48 9.616,47.953 9.82,47.857 L17.77,44.102 C19.09,44.316 20.402,44.424 21.679,44.424 C25.3,44.424 28.684,43.626 31.601,42.258 C33.453,43.36 35.585,44.174 37.825,44.594 C40.136,45.029 42.555,45.082 45.026,44.689 L51.734,47.857 C51.938,47.953 52.157,48 52.374,48 C52.718,48 53.057,47.882 53.332,47.655 C53.78,47.284 53.973,46.687 53.827,46.124 L52.689,41.735 C56.48,39.166 58.711,35.354 58.711,31.353" id="Fill-1"></path>
        </g>
    </g>
</svg>