<?xml version="1.0" encoding="UTF-8"?>
<svg width="56px" height="27px" viewBox="0 0 56 27" version="1.1" xmlns="http://www.w3.org/2000/svg" xmlns:xlink="http://www.w3.org/1999/xlink">
    <!-- Generator: Sketch 51.2 (57519) - http://www.bohemiancoding.com/sketch -->
    <title>Fill 1</title>
    <desc>Created with Sketch.</desc>
    <defs></defs>
    <g id="Symbols" stroke="none" stroke-width="1" fill="none" fill-rule="evenodd">
        <g id="Icon/-Who-is-this-for/-other-colour" transform="translate(-2.000000, -17.000000)" fill="#46C0B0">
            <path d="M51.8492184,31.7064862 C52.9232184,29.8934862 53.0202184,28.3384862 52.9562184,27.1204862 C52.7892184,23.9404862 50.0002184,20.6764862 46.1092184,20.8444862 C42.0712184,21.0374862 39.9582184,24.3124862 39.9582184,27.4494862 C39.9582184,29.1794862 40.5442184,30.7294862 41.7042184,32.0784862 C40.9562184,32.4404862 40.1292184,32.9524862 39.3952184,33.6304862 C38.4132184,32.7874862 37.2802184,32.0924862 36.0162184,31.5654862 C37.9622184,29.4914862 38.9352184,27.0904862 38.2622184,23.8334862 C37.4962184,20.1334862 33.4432184,16.8974862 29.6632184,17.0024862 C21.8282184,17.2214862 17.9742184,26.1364862 22.3412184,31.6274862 C21.3872184,32.1164862 20.5092184,32.7554862 19.7262184,33.5054862 C19.0292184,32.8924862 18.2642184,32.4164862 17.5652184,32.0784862 C18.7242184,30.7294862 19.3102184,29.1794862 19.3102184,27.4494862 C19.3102184,24.3084862 17.1972184,21.0314862 13.1572184,20.8444862 C9.14321841,20.6624862 6.47921841,23.9574862 6.31221841,27.1204862 C6.24821841,28.3384862 6.34621841,29.8934862 7.42021841,31.7064862 C3.47621841,33.2634862 1.90721841,37.8434862 2.00421841,40.1834862 C2.03821841,40.9894862 2.70221841,41.6204862 3.50221841,41.6204862 C3.52321841,41.6204862 3.54421841,41.6204862 3.56521841,41.6194862 C4.39321841,41.5844862 5.03621841,40.8854862 5.00121841,40.0584862 C4.94221841,38.6434862 6.24821841,34.7084862 9.53821841,34.2284862 C9.88521841,34.1784862 10.2032184,34.0074862 10.4382184,33.7474862 L10.8252184,33.3154862 C11.3292184,32.7534862 11.3382184,31.9044862 10.8442184,31.3324862 C9.47621841,29.7494862 9.24121841,28.5664862 9.30821841,27.2774862 C9.38821841,25.7694862 10.7372184,23.7414862 13.0192184,23.8414862 C15.2932184,23.9464862 16.3102184,25.7294862 16.3102184,27.4494862 C16.3102184,28.3134862 16.1092184,29.6224862 14.3682184,30.9944862 C14.1682184,31.1514862 14.0122184,31.3564862 13.9132184,31.5894862 L13.6732184,32.1604862 C13.5022184,32.5654862 13.5202184,33.0254862 13.7172184,33.4174862 C13.9142184,33.8104862 14.2772184,34.0974862 14.7032184,34.2014862 C15.2862184,34.3444862 16.8082184,34.8864862 17.8352184,35.8294862 C16.5942184,37.7854862 15.8762184,40.0794862 15.9092184,42.3534862 C15.9392184,44.4664862 19.2252184,44.4734862 19.1952184,42.3534862 C19.1392184,38.4114862 22.0532184,34.5584862 25.9342184,33.8664862 C27.1002184,33.6594862 27.3342184,32.5714862 26.9512184,31.7214862 C26.8502184,31.3824862 26.6362184,31.0634862 26.2622184,30.8224862 C21.2332184,27.5744862 24.4662184,19.3654862 30.4412184,20.3364862 C33.1262184,20.7734862 35.1792184,23.3494862 35.1552184,25.9834862 C35.1332184,28.3514862 33.6202184,29.5244862 31.8992184,30.8874862 C31.7582184,30.9984862 31.6562184,31.1194862 31.5702184,31.2414862 C30.8482184,32.0874862 30.9112184,33.5864862 32.2952184,33.8654862 C36.5332184,34.7184862 39.7602184,37.2854862 40.0912184,41.7944862 C40.2452184,43.8914862 43.5322184,43.9084862 43.3772184,41.7944862 C43.2102184,39.5134862 42.5092184,37.5234862 41.3892184,35.8674862 C42.4152184,34.8994862 43.9742184,34.3464862 44.5612184,34.2024862 C44.9902184,34.1004862 45.3522184,33.8144862 45.5522184,33.4214862 C45.7512184,33.0284862 45.7672184,32.5664862 45.5962184,32.1604862 L45.3552184,31.5894862 C45.2572184,31.3564862 45.1002184,31.1514862 44.9012184,30.9944862 C43.1602184,29.6224862 42.9582184,28.3134862 42.9582184,27.4494862 C42.9582184,25.7314862 43.9762184,23.9504862 46.2512184,23.8414862 C48.5322184,23.7184862 49.8832184,25.8054862 49.9602184,27.2774862 C50.0282184,28.5664862 49.7932184,29.7484862 48.4242184,31.3324862 C47.9312184,31.9044862 47.9392184,32.7534862 48.4432184,33.3154862 L48.8302184,33.7474862 C49.0652184,34.0074862 49.3832184,34.1784862 49.7302184,34.2284862 C53.0202184,34.7084862 54.3272184,38.6434862 54.2672184,40.0584862 C54.2332184,40.8854862 54.8762184,41.5844862 55.7032184,41.6194862 C55.7252184,41.6204862 55.7462184,41.6204862 55.7672184,41.6204862 C56.5672184,41.6204862 57.2312184,40.9894862 57.2652184,40.1834862 C57.3622184,37.8434862 55.7922184,33.2634862 51.8492184,31.7064862" id="Fill-1"></path>
        </g>
    </g>
</svg>