<?xml version="1.0" encoding="UTF-8"?>
<svg width="393px" height="299px" viewBox="0 0 393 299" preserveAspectRatio="none" version="1.1" xmlns="http://www.w3.org/2000/svg" xmlns:xlink="http://www.w3.org/1999/xlink">
    <!-- Generator: Sketch 51.2 (57519) - http://www.bohemiancoding.com/sketch -->
    <title>Rectangle 2 Copy 13</title>
    <desc>Created with Sketch.</desc>
    <defs></defs>
    <g id="PL" stroke="none" stroke-width="1" fill="none" fill-rule="evenodd">
        <g id="Comic-Relief-HIV-Booking--7.0-Cards" transform="translate(-738.000000, -10733.000000)" fill="#DEEBFB">
            <path d="M741.724347,10738.9345 L791.556911,10751.3206 C791.793333,10751.3794 792.036033,10751.4091 792.279648,10751.4092 C824.853145,10751.419 867.504919,10746.8242 920.234969,10737.6246 C972.871719,10728.4413 1032.60735,10732.9349 1099.44185,10751.1054 L1099.44185,10751.1053 C1100.16126,10751.3009 1100.78207,10751.7574 1101.1833,10752.3857 C1120.90436,10783.2706 1130.76489,10823.0915 1130.76489,10871.8486 C1130.76489,10945.7577 1140.62844,11011.3341 1032.58053,11021.2358 C924.532628,11031.1375 879.278909,11048.5513 791.912071,10994.6849 C727.571621,10955.0156 759.121512,10815.2508 758.853957,10810.0359 C758.682557,10806.6952 751.781419,10784.2773 738.150542,10742.7822 L738.150539,10742.7822 C737.633456,10741.2081 738.49034,10739.5129 740.064442,10738.9958 C740.600951,10738.8196 741.176308,10738.7983 741.724347,10738.9345 Z" id="Rectangle-2-Copy-13" transform="translate(934.500000, 10882.500000) scale(1, -1) translate(-934.500000, -10882.500000) "></path>
        </g>
    </g>
</svg>