<?xml version="1.0" encoding="UTF-8"?>
<svg width="11px" height="20px" viewBox="0 0 11 20" version="1.1" xmlns="http://www.w3.org/2000/svg" xmlns:xlink="http://www.w3.org/1999/xlink">
    <!-- Generator: Sketch 51.2 (57519) - http://www.bohemiancoding.com/sketch -->
    <title>Group 4</title>
    <desc>Created with Sketch.</desc>
    <defs></defs>
    <g id="PL" stroke="none" stroke-width="1" fill="none" fill-rule="evenodd" opacity="0.797712054">
        <g id="Comic-Relief-HIV-Booking--6.0-Forms" transform="translate(-973.000000, -360.000000)" fill="#38486C">
            <g id="Form/-Dropdown-Copy" transform="translate(699.000000, 346.000000)">
                <g id="Group-4" transform="translate(269.000000, 11.000000)">
                    <path d="M6.17956898,16.1277315 L15.0115792,16.1277315 C15.2589746,16.1277315 15.4692602,16.2143197 15.642437,16.3874966 C15.8156139,16.5606734 15.9022021,16.770959 15.9022021,17.0183544 C15.9022021,17.2657499 15.8156139,17.4760354 15.642437,17.6492123 L11.226432,22.0652174 C11.0532551,22.2383943 10.8429695,22.3249824 10.5955741,22.3249824 C10.3481786,22.3249824 10.1378931,22.2383943 9.96471621,22.0652174 L5.54871111,17.6492123 C5.37553425,17.4760354 5.28894611,17.2657499 5.28894611,17.0183544 C5.28894611,16.770959 5.37553425,16.5606734 5.54871111,16.3874966 C5.72188797,16.2143197 5.93217355,16.1277315 6.17956898,16.1277315 Z" id=""></path>
                    <path d="M15.0115792,9.57882417 L6.17956898,9.57882417 C5.93217355,9.57882417 5.72188797,9.49223602 5.54871111,9.31905916 C5.37553425,9.1458823 5.28894611,8.93559672 5.28894611,8.68820129 C5.28894611,8.44080586 5.37553425,8.23052028 5.54871111,8.05734342 L9.96471621,3.64133832 C10.1378931,3.46816146 10.3481786,3.38157332 10.5955741,3.38157332 C10.8429695,3.38157332 11.0532551,3.46816146 11.226432,3.64133832 L15.642437,8.05734342 C15.8156139,8.23052028 15.9022021,8.44080586 15.9022021,8.68820129 C15.9022021,8.93559672 15.8156139,9.1458823 15.642437,9.31905916 C15.4692602,9.49223602 15.2589746,9.57882417 15.0115792,9.57882417 Z" id=""></path>
                </g>
            </g>
        </g>
    </g>
</svg>