<?xml version="1.0" encoding="UTF-8"?>
<svg width="1137px" height="594px" viewBox="0 0 1137 594" version="1.1" xmlns="http://www.w3.org/2000/svg" xmlns:xlink="http://www.w3.org/1999/xlink">
    <!-- Generator: Sketch 51.2 (57519) - http://www.bohemiancoding.com/sketch -->
    <title>Combined Shape Copy 3</title>
    <desc>Created with Sketch.</desc>
    <defs></defs>
    <g id="PL" stroke="none" stroke-width="1" fill="none" fill-rule="evenodd">
        <g id="Comic-Relief-HIV-Booking--7.0-Cards" transform="translate(-630.000000, -9312.000000)" fill="#D0EFEB">
            <path d="M1766.49978,9839.32136 L1767,9839.32282 L1767,9878.6936 C1675.00241,9903.04476 1589.22029,9911.10911 1509.65363,9902.88664 C1390.30364,9890.55293 1365.9916,9870.04386 1251.06198,9863.98803 C1136.13236,9857.9322 1119.55598,9861.33355 978.656682,9878.6936 C884.72382,9890.26696 768.504926,9888.95486 630,9874.75731 L630,9854 L630,9387 L630,9318.02786 C796.868967,9309.99071 921.560236,9309.99071 1004.07381,9318.02786 C1127.84417,9330.08357 1151.05111,9370.82626 1265.98073,9378.06299 C1380.91035,9385.29972 1396.93419,9389.43023 1537.83348,9368.68495 C1631.76635,9354.85476 1707.83355,9354.85476 1766.03508,9368.68495 L1766.03508,9387 L1766.49978,9387 L1766.49978,9839.32136 Z" id="Combined-Shape-Copy-3"></path>
        </g>
    </g>
</svg>